<?xml version="1.0" standalone="no"?>
<!DOCTYPE svg PUBLIC "-//W3C//DTD SVG 20010904//EN"
 "http://www.w3.org/TR/2001/REC-SVG-20010904/DTD/svg10.dtd">
<svg version="1.0" xmlns="http://www.w3.org/2000/svg"
 width="512.000000pt" height="512.000000pt" viewBox="0 0 512.000000 512.000000"
 preserveAspectRatio="xMidYMid meet">
<metadata>
Created by potrace 1.14, written by Peter Selinger 2001-2017
</metadata>
<g transform="translate(0.000000,512.000000) scale(0.100000,-0.100000)"
fill="#000000" stroke="none">
<path d="M4229 5109 c-129 -30 -2078 -593 -2121 -612 -118 -53 -239 -173 -294
-292 -56 -122 -54 -59 -54 -1462 0 -711 -1 -1293 -3 -1293 -2 0 -35 16 -73 34
-95 47 -207 83 -322 102 -140 24 -373 15 -504 -19 -420 -110 -698 -414 -698
-763 0 -357 274 -659 700 -771 117 -31 355 -43 478 -24 411 64 720 306 803
629 18 72 19 122 19 1366 l0 1292 1188 339 c653 186 1193 340 1200 343 9 3 12
-174 12 -863 0 -477 -3 -865 -7 -863 -232 118 -392 154 -647 145 -117 -4 -173
-11 -248 -30 -421 -110 -698 -414 -698 -767 0 -359 282 -662 719 -773 74 -19
114 -22 281 -22 168 0 207 3 282 22 364 92 624 320 699 611 18 73 19 125 19
1621 0 1716 5 1596 -67 1741 -73 146 -221 263 -388 305 -63 16 -216 19 -276 4z
m187 -404 c50 -15 99 -56 124 -104 7 -14 15 -63 17 -110 l5 -86 -1188 -339
c-654 -186 -1195 -341 -1201 -343 -10 -4 -13 21 -13 105 0 155 12 205 64 256
l41 42 975 279 c1034 295 1099 313 1116 314 6 1 33 -6 60 -14z m-248 -2736
c163 -41 293 -130 352 -240 78 -146 26 -294 -143 -407 -232 -155 -602 -155
-834 0 -237 159 -237 397 1 556 165 111 407 146 624 91z m-2821 -795 c237 -53
405 -205 406 -369 1 -110 -57 -203 -176 -283 -233 -155 -601 -155 -834 0 -122
82 -176 168 -177 278 -1 267 401 460 781 374z"/>
</g>
</svg>
